<?xml version="1.0" encoding="UTF-8" standalone="no"?>
<!-- Created with Inkscape (http://www.inkscape.org/) -->

<svg
   width="300mm"
   height="100mm"
   viewBox="0 0 300 100"
   version="1.1"
   id="svg1"
   xml:space="preserve"
   inkscape:version="1.4.2 (f4327f4, 2025-05-13)"
   sodipodi:docname="colabri-dark.svg"
   xmlns:inkscape="http://www.inkscape.org/namespaces/inkscape"
   xmlns:sodipodi="http://sodipodi.sourceforge.net/DTD/sodipodi-0.dtd"
   xmlns:xlink="http://www.w3.org/1999/xlink"
   xmlns="http://www.w3.org/2000/svg"
   xmlns:svg="http://www.w3.org/2000/svg"><sodipodi:namedview
     id="namedview1"
     pagecolor="#505050"
     bordercolor="#eeeeee"
     borderopacity="1"
     inkscape:showpageshadow="0"
     inkscape:pageopacity="0"
     inkscape:pagecheckerboard="0"
     inkscape:deskcolor="#505050"
     inkscape:document-units="mm"
     inkscape:zoom="0.71508597"
     inkscape:cx="416.73311"
     inkscape:cy="281.08508"
     inkscape:window-width="1280"
     inkscape:window-height="730"
     inkscape:window-x="-6"
     inkscape:window-y="-6"
     inkscape:window-maximized="1"
     inkscape:current-layer="g53" /><defs
     id="defs1"><linearGradient
       id="linearGradient57"
       inkscape:collect="always"><stop
         style="stop-color:#0e73a9;stop-opacity:1;"
         offset="0"
         id="stop57" /><stop
         style="stop-color:#00808e;stop-opacity:1;"
         offset="1"
         id="stop58" /></linearGradient><linearGradient
       id="linearGradient51"
       inkscape:collect="always"><stop
         style="stop-color:#059081;stop-opacity:1;"
         offset="0"
         id="stop52" /><stop
         style="stop-color:#09907f;stop-opacity:1;"
         offset="1"
         id="stop53" /></linearGradient><linearGradient
       id="linearGradient49"
       inkscape:collect="always"><stop
         style="stop-color:#01afad;stop-opacity:1;"
         offset="0"
         id="stop50" /><stop
         style="stop-color:#09c1ab;stop-opacity:1;"
         offset="1"
         id="stop51" /></linearGradient><linearGradient
       id="linearGradient47"
       inkscape:collect="always"><stop
         style="stop-color:#0f71a9;stop-opacity:1;"
         offset="0"
         id="stop48" /><stop
         style="stop-color:#009eaf;stop-opacity:1;"
         offset="1"
         id="stop49" /></linearGradient><linearGradient
       id="linearGradient45"
       inkscape:collect="always"><stop
         style="stop-color:#00a796;stop-opacity:1;"
         offset="0"
         id="stop46" /><stop
         style="stop-color:#01857a;stop-opacity:1;"
         offset="1"
         id="stop47" /></linearGradient><linearGradient
       id="linearGradient42"
       inkscape:collect="always"><stop
         style="stop-color:#05cd8f;stop-opacity:1;"
         offset="0"
         id="stop45" /><stop
         style="stop-color:#0da884;stop-opacity:1;"
         offset="1"
         id="stop43" /></linearGradient><linearGradient
       id="linearGradient38"
       inkscape:collect="always"><stop
         style="stop-color:#06a57e;stop-opacity:1;"
         offset="0.29752371"
         id="stop42" /><stop
         style="stop-color:#01857a;stop-opacity:1;"
         offset="1"
         id="stop39" /></linearGradient><rect
       x="214.80315"
       y="383.41208"
       width="404.19949"
       height="87.769028"
       id="rect1" /><radialGradient
       inkscape:collect="always"
       xlink:href="#linearGradient38"
       id="radialGradient40"
       cx="57.555111"
       cy="103.91199"
       fx="57.555111"
       fy="103.91199"
       r="2.3543806"
       gradientTransform="matrix(0.52788397,-0.75066933,0.42267623,0.29723342,-17.307278,117.58704)"
       gradientUnits="userSpaceOnUse" /><radialGradient
       inkscape:collect="always"
       xlink:href="#linearGradient42"
       id="radialGradient44"
       cx="55.205914"
       cy="106.76981"
       fx="55.205914"
       fy="106.76981"
       r="1.0110869"
       gradientTransform="matrix(-1.9866896,-0.01610613,0.02154126,-2.6571054,163.70287,389.47757)"
       gradientUnits="userSpaceOnUse" /><radialGradient
       inkscape:collect="always"
       xlink:href="#linearGradient45"
       id="radialGradient47"
       cx="56.972492"
       cy="103.90339"
       fx="56.972492"
       fy="103.90339"
       r="0.95885652"
       gradientTransform="matrix(1,0,0,1.0302241,0,-3.1403863)"
       gradientUnits="userSpaceOnUse" /><radialGradient
       inkscape:collect="always"
       xlink:href="#linearGradient47"
       id="radialGradient49"
       cx="53.733669"
       cy="102.81181"
       fx="53.733669"
       fy="102.81181"
       r="1.2497945"
       gradientTransform="matrix(5.2256095e-6,1.3268588,-2.0000023,7.8498853e-6,259.35724,31.934659)"
       gradientUnits="userSpaceOnUse" /><radialGradient
       inkscape:collect="always"
       xlink:href="#linearGradient49"
       id="radialGradient51"
       cx="53.357471"
       cy="102.02381"
       fx="53.357471"
       fy="102.02381"
       r="1.4836315"
       gradientTransform="matrix(8.9699452e-6,1.8656141,-1.9999988,9.6160719e-6,257.40449,2.5780492)"
       gradientUnits="userSpaceOnUse" /><radialGradient
       inkscape:collect="always"
       xlink:href="#linearGradient51"
       id="radialGradient53"
       cx="55.085552"
       cy="105.09508"
       fx="55.085552"
       fy="105.09508"
       r="0.62016666"
       gradientTransform="matrix(2.000004,5.1340215e-6,-2.1090954e-6,0.82113288,-55.085011,18.747983)"
       gradientUnits="userSpaceOnUse" /><radialGradient
       inkscape:collect="always"
       xlink:href="#linearGradient57"
       id="radialGradient58"
       cx="55.153786"
       cy="106.87061"
       fx="55.153786"
       fy="106.87061"
       r="0.354009"
       gradientTransform="matrix(-1.9999985,1.112578e-5,-2.3610314e-5,-4.4017134,165.4638,576.8587)"
       gradientUnits="userSpaceOnUse" /></defs><g
     inkscape:label="Layer 1"
     inkscape:groupmode="layer"
     id="layer1"><path
       id="text8"
       style="white-space:pre;fill:#ffffff;stroke-width:4.88127;fill-opacity:1"
       d="m 294.75608,27.033399 c -1.4833,0 -2.69521,0.492034 -3.63241,1.468167 -0.9372,0.937208 -1.41134,2.130282 -1.41134,3.575149 0,1.444922 0.47414,2.628422 1.41134,3.565629 0.9372,0.937206 2.14856,1.410975 3.63241,1.410975 1.4833,0 2.69521,-0.473953 3.63242,-1.410975 0.9372,-0.937207 1.40212,-2.120781 1.40212,-3.565629 0,-1.444922 -0.46492,-2.637941 -1.40212,-3.575149 -0.93721,-0.976317 -2.14856,-1.468167 -3.63242,-1.468167 z m -114.87239,0.76268 v 35.26539 c 0,3.08496 0.69184,5.324995 2.05946,6.730805 1.36706,1.366698 3.66119,2.04979 6.9023,2.04979 0.89847,0 1.76372,-0.05535 2.58378,-0.171576 v -7.093142 c -0.0369,0 -0.19372,0.02952 -0.46676,0.06642 h -0.64941 c -0.85972,0 -1.42425,-0.182645 -1.6973,-0.533913 -0.27304,-0.351453 -0.40957,-0.897911 -0.40957,-1.639743 V 27.795857 Z m 50.61488,0 v 43.931563 h 7.67458 v -3.746778 c 2.03067,2.967827 5.27271,4.452285 9.72444,4.452285 4.33458,0 7.76775,-1.530341 10.30595,-4.576206 2.5384,-3.045923 3.804,-6.870704 3.804,-11.478643 0,-4.607938 -1.2656,-8.432757 -3.804,-11.478679 -2.5382,-3.045921 -5.97137,-4.566632 -10.30595,-4.566632 -2.03049,0 -3.85214,0.391487 -5.45332,1.172616 -1.56263,0.742016 -2.77325,1.679962 -3.63224,2.81245 V 27.796079 Z m -112.403,1.468167 c -6.05291,0 -11.05259,1.985015 -14.9966,5.968144 -3.944215,3.983128 -5.920465,9.201562 -5.920465,15.644858 0,6.443296 1.97625,11.652265 5.920465,15.635393 3.94401,3.983128 8.94369,5.977663 14.9966,5.977663 5.27179,0 9.74327,-1.466323 13.41386,-4.395056 3.7099,-2.928771 5.94979,-6.890167 6.73092,-11.888615 h -9.13334 c -0.62541,2.577318 -1.91832,4.590025 -3.87078,6.034891 -1.95244,1.40581 -4.32904,2.106944 -7.14066,2.106944 -3.74882,0 -6.68147,-1.211173 -8.79018,-3.632359 -2.06961,-2.42111 -3.1081,-5.699526 -3.1081,-9.838861 0,-4.139318 1.03868,-7.417696 3.1081,-9.838808 2.10871,-2.421129 5.04136,-3.632358 8.79018,-3.632358 2.81162,0 5.18822,0.719325 7.14066,2.164154 1.95246,1.40581 3.24592,3.400363 3.87078,5.977682 h 9.13334 c -0.7804,-4.998449 -3.02102,-8.969364 -6.73092,-11.898135 -3.67059,-2.928771 -8.14207,-4.385537 -13.41386,-4.385537 z m 40.17517,11.068707 c -4.80318,0 -8.68244,1.557091 -11.65033,4.681052 -2.96769,3.08496 -4.45228,6.87347 -4.45228,11.364258 0,4.490789 1.48515,8.297398 4.45228,11.421432 2.96789,3.08496 6.84715,4.633417 11.65033,4.633417 4.80319,0 8.69204,-1.54842 11.65974,-4.633417 2.96788,-3.124034 4.45229,-6.930643 4.45229,-11.421432 0,-4.490788 -1.48515,-8.279298 -4.45229,-11.364258 -2.9677,-3.124034 -6.85655,-4.681052 -11.65974,-4.681052 z m 51.43457,0 c -4.49066,0 -7.85132,1.010633 -10.07718,3.041235 -2.22588,2.030603 -3.47339,4.553405 -3.74661,7.56027 h 8.19889 c 0.35053,-2.499224 2.1637,-3.746779 5.44391,-3.746779 3.67062,0 5.51053,1.438649 5.51053,4.328345 v 1.287183 h -6.09222 c -4.64692,0 -8.10776,0.783158 -10.37274,2.345267 -2.26479,1.522962 -3.39387,4.027591 -3.39387,7.50306 0,2.889733 0.88371,5.248265 2.64078,7.083622 1.75635,1.796375 4.47111,2.698049 8.1419,2.698049 4.80319,0 8.08156,-1.365961 9.83883,-4.099505 v 3.393998 h 7.37902 v -19.97324 c 0,-3.631676 -1.12908,-6.445786 -3.39406,-8.437351 -2.26478,-1.991563 -5.62545,-2.984063 -10.07718,-2.984063 z m 74.32529,0.409935 c -4.02224,0 -6.90895,1.420385 -8.66621,4.271117 V 41.03844 h -7.67458 v 30.689184 h 8.32288 V 56.435473 c 0,-2.772563 0.60143,-4.803424 1.81169,-6.092083 1.24899,-1.288659 3.10735,-1.925812 5.56752,-1.925812 0.50734,0 1.05343,0.0535 1.64011,0.171575 V 40.80008 Z m 6.59734,0.295368 c -0.0553,10.229612 -0.0369,20.459462 -0.0369,30.689166 h 8.31346 V 41.038256 Z m -132.3572,6.61644 c 2.26498,0 4.12297,0.783342 5.56771,2.345304 1.4833,1.562073 2.22144,3.683609 2.22144,6.378079 0,2.694469 -0.73796,4.825599 -2.22144,6.387599 -1.44455,1.562072 -3.30273,2.345322 -5.56771,2.345322 -2.26498,0 -4.14105,-0.783343 -5.62489,-2.345322 -1.44456,-1.562073 -2.16425,-3.69313 -2.16425,-6.387599 0,-2.69447 0.71951,-4.816061 2.16425,-6.378079 1.48329,-1.562073 3.35991,-2.345304 5.62489,-2.345304 z m 87.86313,0 c 2.26498,0 4.08663,0.819501 5.45333,2.459669 1.4058,1.640111 2.10686,3.725452 2.10686,6.263714 0,2.538262 -0.70106,4.633066 -2.10686,6.273178 -1.36707,1.640112 -3.18835,2.459743 -5.45333,2.459743 -2.26498,0 -4.09511,-0.819687 -5.50092,-2.459743 -1.36707,-1.640112 -2.04987,-3.734916 -2.04987,-6.273178 0,-2.538262 0.68262,-4.623603 2.04987,-6.263714 1.40581,-1.640112 3.23594,-2.459669 5.50092,-2.459669 z m -36.07563,11.421412 h 4.97661 v 0.352929 c 0,2.147753 -0.54609,3.786942 -1.64012,4.919395 -1.05528,1.093469 -2.89408,1.639742 -5.51051,1.639742 -3.12396,0 -4.68106,-1.110996 -4.68106,-3.336844 0,-1.483849 0.54609,-2.440094 1.64011,-2.869659 1.13277,-0.468603 2.87196,-0.705488 5.21497,-0.705488 z"
       sodipodi:nodetypes="scssssscscscscccsssccccccsssssccccsssssccccscscsccccsscscscscsssccsscscscscccsssccccccscsccccccccscscscscsscscscscsscscsscs"
       inkscape:label="Colabri" /><g
       id="g53"
       inkscape:label="Logo"
       transform="matrix(17.006051,0,0,17.006051,-907.39978,-1736.7171)"><path
         d="m 56.32581,104.88976 c 0.01479,-0.48446 -0.24191,-0.87834 -0.312175,-0.98189 -0.111528,0.17512 -0.225279,0.34926 -0.347782,0.49868 -0.174664,0.21304 -0.382319,0.42165 -0.57976,0.63874 0.272989,0.001 0.566311,0.007 0.761535,-0.021 0.16406,-0.0253 0.323717,-0.0744 0.478182,-0.13452 z"
         style="display:inline;fill:url(#radialGradient53);stroke:none;stroke-width:0.02"
         id="path32"
         sodipodi:nodetypes="scsccs" /><path
         d="m 57.932432,103.31861 c -0.242565,-0.0891 -0.457707,-0.39726 -0.837159,-0.40463 -0.05421,-10e-4 -0.111655,0.004 -0.173116,0.0165 -0.353381,0.0733 -0.623555,0.52994 -0.908522,0.97739 0.06326,0.1088 0.312176,0.5018 0.312176,0.98166 4.9e-5,-1.5e-4 0.197597,-0.61462 0.350767,-0.90097 0.153189,-0.28639 0.32934,-0.59231 0.591529,-0.67661 0.26219,-0.0842 0.664325,0.007 0.664325,0.007 z"
         style="display:inline;fill:url(#radialGradient47);stroke:none;stroke-width:0.02"
         id="path31"
         sodipodi:nodetypes="ccccccccc" /><path
         d="m 57.932432,103.31882 c 0,0 -0.402886,-0.092 -0.665076,-0.008 -0.262189,0.0843 -0.44109,0.38902 -0.594279,0.67541 -0.15317,0.28635 -0.347217,0.90315 -0.347266,0.9033 0,0 -0.06703,0.33465 -0.349849,0.678 -0.282815,0.34335 -0.789594,0.47321 -1.10846,0.82114 -0.254038,0.27719 -0.370379,0.84392 -0.40721,1.06298 0.09005,-0.40846 0.552991,-0.91704 0.693498,-1.00614 0.291378,-0.47572 0.910036,-0.14011 1.632979,-0.91621 0.668073,-0.7172 0.479475,-1.38149 0.766878,-1.75028 0.287403,-0.36879 1.367865,-0.30213 1.615406,-0.36122 -0.404911,-0.10152 -0.832064,0.006 -1.236621,-0.099 z"
         style="display:inline;fill:url(#radialGradient40);fill-opacity:1;stroke:none;stroke-width:0.02"
         id="path30"
         sodipodi:nodetypes="ccscssccssccc" /><path
         d="m 53.357467,102.12348 c 0.0012,0.11787 0.143528,0.62404 0.376204,1.10898 0.18059,0.0784 0.438902,0.18867 0.656291,0.27492 0.379153,0.15043 1.198353,0.31013 1.505851,0.58239 0.3075,0.27226 0.337447,0.80099 0.337447,0.80099 0.03014,7e-4 0.06174,-0.001 0.09255,-0.001 6.13e-4,-0.67924 -0.368176,-1.14111 -1.036676,-1.83432 -0.664732,-0.6893 -1.673676,-0.93373 -1.931665,-0.93173 z"
         style="display:inline;fill:url(#radialGradient51);stroke:none;stroke-width:0.02"
         id="path24"
         sodipodi:nodetypes="scssccsss" /><path
         d="m 55.15379,106.44551 c -0.150944,0.0957 -0.674879,0.67758 -0.708018,1.09728 0.07439,0.1732 0.18831,0.33056 0.354501,0.46095 0.09287,-0.46436 0.116853,-1.15433 0.353517,-1.55823 z"
         style="display:inline;fill:url(#radialGradient58);stroke:none;stroke-width:0.02"
         id="path19"
         sodipodi:nodetypes="cccc" /><path
         d="m 54.867501,106.3889 c 0.318866,-0.34793 0.825645,-0.47779 1.10846,-0.82114 0.282815,-0.34335 0.349849,-0.678 0.349849,-0.678 0,0 -0.246405,0.10014 -0.478523,0.13333 -0.195224,0.0279 -0.488205,0.0234 -0.761194,0.0222 -0.294864,0.3242 -0.555324,0.62577 -0.654741,1.05265 -0.09942,0.42688 -0.17372,1.00678 0.01442,1.44485 0.03687,-0.24844 0.151816,-0.85938 0.421729,-1.15389 z"
         style="fill:url(#radialGradient44);stroke:none;stroke-width:0.02"
         id="path22"
         sodipodi:nodetypes="csccczcc" /><path
         d="m 56.23326,104.89076 c 0,0 -0.02995,-0.52873 -0.337447,-0.80099 -0.307498,-0.27226 -1.126698,-0.43196 -1.505851,-0.58239 -0.217389,-0.0862 -0.475701,-0.1965 -0.656291,-0.27492 0.140795,0.29344 0.314608,0.57883 0.510046,0.76584 0.501374,0.47976 1.102886,0.87174 1.989543,0.89246 z"
         style="fill:url(#radialGradient49);stroke:none;stroke-width:0.02"
         id="path25" /></g></g></svg>
